<svg xmlns="http://www.w3.org/2000/svg" xmlns:xlink="http://www.w3.org/1999/xlink" width="22" height="22" viewBox="0 0 22 22"><defs><style>.a{fill:none;}.b{clip-path:url(#a);}.c{fill:#fff;}</style><clipPath id="a"><rect class="a" width="22" height="22"/></clipPath></defs><g class="b"><rect class="a" width="22" height="22"/><path class="c" d="M11,0A11,11,0,1,0,22,11,11.032,11.032,0,0,0,11,0Zm-.11,18.26a1.54,1.54,0,1,1,1.54-1.54A1.5,1.5,0,0,1,10.89,18.26Zm2.97-8.58L12.65,11a1.344,1.344,0,0,0-.44.99,1.338,1.338,0,0,1-1.32,1.32,1.271,1.271,0,0,1-1.32-1.32,2.455,2.455,0,0,1,.88-1.98l.99-1.21a2.5,2.5,0,0,0,.77-1.54A1.154,1.154,0,0,0,11,6.05a1.294,1.294,0,0,0-1.32.99,1.436,1.436,0,0,1-1.32.77A1.154,1.154,0,0,1,7.15,6.6a1.2,1.2,0,0,1,.11-.55A3.666,3.666,0,0,1,11,3.74a3.564,3.564,0,0,1,3.85,3.52A3.609,3.609,0,0,1,13.86,9.68Z"/></g></svg>