<svg xmlns="http://www.w3.org/2000/svg" width="22.052" height="22.054" viewBox="0 0 22.052 22.054"><defs><style>.a{fill:#fff;}</style></defs><path class="a" d="M21.459,9.592l0,0-9-9a2.03,2.03,0,0,0-2.871,0L.6,9.586.589,9.6A2.029,2.029,0,0,0,1.94,13.055q.031,0,.063,0h.359v6.621a2.379,2.379,0,0,0,2.376,2.376h3.52a.646.646,0,0,0,.646-.646v-5.19a1.085,1.085,0,0,1,1.084-1.084h2.076a1.085,1.085,0,0,1,1.084,1.084v5.19a.646.646,0,0,0,.646.646h3.52a2.379,2.379,0,0,0,2.376-2.376V13.058h.332a2.03,2.03,0,0,0,1.437-3.465Z" transform="translate(0.001)"/></svg>