<svg xmlns="http://www.w3.org/2000/svg" xmlns:xlink="http://www.w3.org/1999/xlink" width="24.225" height="24" viewBox="0 0 24.225 24"><defs><style>.a{fill:none;}.b{clip-path:url(#a);}.c{fill:#fff;fill-rule:evenodd;}</style><clipPath id="a"><rect class="a" width="24.225" height="24"/></clipPath></defs><g class="b"><rect class="a" width="24" height="24" transform="translate(0 -0.414)"/><path class="c" d="M271.46,15a3,3,0,1,0-3.056-3A3.037,3.037,0,0,0,271.46,15ZM265.2,5.4a8.667,8.667,0,0,1,3.667-1.95L270.085,0h3.056l1.222,3.45A10.732,10.732,0,0,1,278.03,5.4l3.667-.75,1.528,2.7-2.445,2.7a8.4,8.4,0,0,1,.153,1.95c0,.6-.153,1.35-.153,1.95l2.445,2.7-1.528,2.7-3.667-.75a8.667,8.667,0,0,1-3.667,1.95L273.14,24h-3.056l-1.222-3.45A10.733,10.733,0,0,1,265.2,18.6l-3.667.75L260,16.65l2.445-2.7a8.4,8.4,0,0,1-.153-1.95c0-.6.153-1.35.153-1.95L260,7.35l1.528-2.7Z" transform="translate(-259)"/></g></svg>